# Tiled2Unity generated file. Do not modify by hand.
# Wavefront file for 'GreenSlimeMap_mesh_0007.obj'

# Vertices (Count = 148)
v -512 -80 0
v -528 -80 0
v -528 -64 0
v -512 -64 0
v -496 -80 0
v -512 -80 0
v -512 -64 0
v -496 -64 0
v -528 -96 0
v -544 -96 0
v -544 -80 0
v -528 -80 0
v -512 -96 0
v -528 -96 0
v -528 -80 0
v -512 -80 0
v -496 -96 0
v -512 -96 0
v -512 -80 0
v -496 -80 0
v -480 -96 0
v -496 -96 0
v -496 -80 0
v -480 -80 0
v -528 -112 0
v -544 -112 0
v -544 -96 0
v -528 -96 0
v -512 -112 0
v -528 -112 0
v -528 -96 0
v -512 -96 0
v -496 -112 0
v -512 -112 0
v -512 -96 0
v -496 -96 0
v -480 -112 0
v -496 -112 0
v -496 -96 0
v -480 -96 0
v -528 -128 0
v -544 -128 0
v -544 -112 0
v -528 -112 0
v -512 -128 0
v -528 -128 0
v -528 -112 0
v -512 -112 0
v -496 -128 0
v -512 -128 0
v -512 -112 0
v -496 -112 0
v -480 -128 0
v -496 -128 0
v -496 -112 0
v -480 -112 0
v -496 -160 0
v -512 -160 0
v -512 -144 0
v -496 -144 0
v -752 -176 0
v -768 -176 0
v -768 -160 0
v -752 -160 0
v -736 -176 0
v -752 -176 0
v -752 -160 0
v -736 -160 0
v -720 -176 0
v -736 -176 0
v -736 -160 0
v -720 -160 0
v -704 -176 0
v -720 -176 0
v -720 -160 0
v -704 -160 0
v -688 -176 0
v -704 -176 0
v -704 -160 0
v -688 -160 0
v -752 -192 0
v -768 -192 0
v -768 -176 0
v -752 -176 0
v -736 -192 0
v -752 -192 0
v -752 -176 0
v -736 -176 0
v -720 -192 0
v -736 -192 0
v -736 -176 0
v -720 -176 0
v -704 -192 0
v -720 -192 0
v -720 -176 0
v -704 -176 0
v -688 -192 0
v -704 -192 0
v -704 -176 0
v -688 -176 0
v -752 -208 0
v -768 -208 0
v -768 -192 0
v -752 -192 0
v -736 -208 0
v -752 -208 0
v -752 -192 0
v -736 -192 0
v -720 -208 0
v -736 -208 0
v -736 -192 0
v -720 -192 0
v -704 -208 0
v -720 -208 0
v -720 -192 0
v -704 -192 0
v -688 -208 0
v -704 -208 0
v -704 -192 0
v -688 -192 0
v -752 -224 0
v -768 -224 0
v -768 -208 0
v -752 -208 0
v -688 -224 0
v -704 -224 0
v -704 -208 0
v -688 -208 0
v -752 -240 0
v -768 -240 0
v -768 -224 0
v -752 -224 0
v -736 -240 0
v -752 -240 0
v -752 -224 0
v -736 -224 0
v -720 -240 0
v -736 -240 0
v -736 -224 0
v -720 -224 0
v -704 -240 0
v -720 -240 0
v -720 -224 0
v -704 -224 0
v -688 -240 0
v -704 -240 0
v -704 -224 0
v -688 -224 0

# Texture cooridinates (Count = 64)
vt 0.3688017 0.2908745
vt 0.3853306 0.2908745
vt 0.3853306 0.3212928
vt 0.3688017 0.3212928
vt 0.3512397 0.2908745
vt 0.3677686 0.2908745
vt 0.3677686 0.3212928
vt 0.3512397 0.3212928
vt 0.3688017 0.2585551
vt 0.3853306 0.2585551
vt 0.3853306 0.2889734
vt 0.3688017 0.2889734
vt 0.3512397 0.2585551
vt 0.3677686 0.2585551
vt 0.3677686 0.2889734
vt 0.3512397 0.2889734
vt 0.3688017 0.2262357
vt 0.3853306 0.2262357
vt 0.3853306 0.256654
vt 0.3688017 0.256654
vt 0.3512397 0.2262357
vt 0.3677686 0.2262357
vt 0.3677686 0.256654
vt 0.3512397 0.256654
vt 0.7551653 0.9695817
vt 0.7716942 0.9695817
vt 0.7716942 1
vt 0.7551653 1
vt 0.5795454 0.9372624
vt 0.5960744 0.9372624
vt 0.5960744 0.9676806
vt 0.5795454 0.9676806
vt 0.8605372 0.2262357
vt 0.8770661 0.2262357
vt 0.8770661 0.256654
vt 0.8605372 0.256654
vt 0.9132231 0.2262357
vt 0.9297521 0.2262357
vt 0.9297521 0.256654
vt 0.9132231 0.256654
vt 0.8429752 0.2262357
vt 0.8595041 0.2262357
vt 0.8595041 0.256654
vt 0.8429752 0.256654
vt 0.8780992 0.2262357
vt 0.8946281 0.2262357
vt 0.8946281 0.256654
vt 0.8780992 0.256654
vt 0.2458678 0.743346
vt 0.2623967 0.743346
vt 0.2623967 0.7737643
vt 0.2458678 0.7737643
vt 0.2634298 0.743346
vt 0.2799587 0.743346
vt 0.2799587 0.7737643
vt 0.2634298 0.7737643
vt 0.8956612 0.2262357
vt 0.9121901 0.2262357
vt 0.9121901 0.256654
vt 0.8956612 0.256654
vt 0.8254132 0.2262357
vt 0.8419421 0.2262357
vt 0.8419421 0.256654
vt 0.8254132 0.256654

# Normal
vn 0 0 -1

# Mesh description
g GreenSlimeMap_mesh_0007

# Faces
f 1/1/1 2/2/1 3/3/1 4/4/1
f 5/5/1 6/6/1 7/7/1 8/8/1
f 9/1/1 10/2/1 11/3/1 12/4/1
f 13/9/1 14/10/1 15/11/1 16/12/1
f 17/13/1 18/14/1 19/15/1 20/16/1
f 21/5/1 22/6/1 23/7/1 24/8/1
f 25/9/1 26/10/1 27/11/1 28/12/1
f 29/17/1 30/18/1 31/19/1 32/20/1
f 33/21/1 34/22/1 35/23/1 36/24/1
f 37/13/1 38/14/1 39/15/1 40/16/1
f 41/17/1 42/18/1 43/19/1 44/20/1
f 45/25/1 46/26/1 47/27/1 48/28/1
f 49/25/1 50/26/1 51/27/1 52/28/1
f 53/21/1 54/22/1 55/23/1 56/24/1
f 57/29/1 58/30/1 59/31/1 60/32/1
f 61/33/1 62/34/1 63/35/1 64/36/1
f 65/37/1 66/38/1 67/39/1 68/40/1
f 69/37/1 70/38/1 71/39/1 72/40/1
f 73/37/1 74/38/1 75/39/1 76/40/1
f 77/41/1 78/42/1 79/43/1 80/44/1
f 81/45/1 82/46/1 83/47/1 84/48/1
f 85/49/1 86/50/1 87/51/1 88/52/1
f 89/49/1 90/50/1 91/51/1 92/52/1
f 93/53/1 94/54/1 95/55/1 96/56/1
f 97/57/1 98/58/1 99/59/1 100/60/1
f 101/45/1 102/46/1 103/47/1 104/48/1
f 105/49/1 106/50/1 107/51/1 108/52/1
f 109/49/1 110/50/1 111/51/1 112/52/1
f 113/53/1 114/54/1 115/55/1 116/56/1
f 117/57/1 118/58/1 119/59/1 120/60/1
f 121/45/1 122/46/1 123/47/1 124/48/1
f 125/57/1 126/58/1 127/59/1 128/60/1
f 129/33/1 130/34/1 131/35/1 132/36/1
f 133/37/1 134/38/1 135/39/1 136/40/1
f 137/61/1 138/62/1 139/63/1 140/64/1
f 141/37/1 142/38/1 143/39/1 144/40/1
f 145/41/1 146/42/1 147/43/1 148/44/1

