# Tiled2Unity generated file. Do not modify by hand.
# Wavefront file for 'GreenSlimeMap_mesh_0004.obj'

# Vertices (Count = 188)
v -256 -16 0
v -272 -16 0
v -272 0 0
v -256 0 0
v -48 -80 0
v -64 -80 0
v -64 -64 0
v -48 -64 0
v -320 -96 0
v -336 -96 0
v -336 -80 0
v -320 -80 0
v -48 -192 0
v -64 -192 0
v -64 -176 0
v -48 -176 0
v -336 -208 0
v -352 -208 0
v -352 -192 0
v -336 -192 0
v -192 -224 0
v -208 -224 0
v -208 -208 0
v -192 -208 0
v -112 -224 0
v -128 -224 0
v -128 -208 0
v -112 -208 0
v -288 -240 0
v -304 -240 0
v -304 -224 0
v -288 -224 0
v -224 -272 0
v -240 -272 0
v -240 -256 0
v -224 -256 0
v -64 -272 0
v -80 -272 0
v -80 -256 0
v -64 -256 0
v -688 -288 0
v -704 -288 0
v -704 -272 0
v -688 -272 0
v -496 -288 0
v -512 -288 0
v -512 -272 0
v -496 -272 0
v -96 -288 0
v -112 -288 0
v -112 -272 0
v -96 -272 0
v -608 -304 0
v -624 -304 0
v -624 -288 0
v -608 -288 0
v -336 -304 0
v -352 -304 0
v -352 -288 0
v -336 -288 0
v -192 -320 0
v -208 -320 0
v -208 -304 0
v -192 -304 0
v -704 -352 0
v -720 -352 0
v -720 -336 0
v -704 -336 0
v -624 -352 0
v -640 -352 0
v -640 -336 0
v -624 -336 0
v -48 -352 0
v -64 -352 0
v -64 -336 0
v -48 -336 0
v -528 -368 0
v -544 -368 0
v -544 -352 0
v -528 -352 0
v -480 -368 0
v -496 -368 0
v -496 -352 0
v -480 -352 0
v -688 -400 0
v -704 -400 0
v -704 -384 0
v -688 -384 0
v -640 -400 0
v -656 -400 0
v -656 -384 0
v -640 -384 0
v -608 -416 0
v -624 -416 0
v -624 -400 0
v -608 -400 0
v -720 -432 0
v -736 -432 0
v -736 -416 0
v -720 -416 0
v -640 -432 0
v -656 -432 0
v -656 -416 0
v -640 -416 0
v -512 -432 0
v -528 -432 0
v -528 -416 0
v -512 -416 0
v -672 -464 0
v -688 -464 0
v -688 -448 0
v -672 -448 0
v -736 -480 0
v -752 -480 0
v -752 -464 0
v -736 -464 0
v -624 -496 0
v -640 -496 0
v -640 -480 0
v -624 -480 0
v -624 -528 0
v -640 -528 0
v -640 -512 0
v -624 -512 0
v -256 -624 0
v -272 -624 0
v -272 -608 0
v -256 -608 0
v -304 -640 0
v -320 -640 0
v -320 -624 0
v -304 -624 0
v -48 -640 0
v -64 -640 0
v -64 -624 0
v -48 -624 0
v -144 -656 0
v -160 -656 0
v -160 -640 0
v -144 -640 0
v -80 -656 0
v -96 -656 0
v -96 -640 0
v -80 -640 0
v -240 -688 0
v -256 -688 0
v -256 -672 0
v -240 -672 0
v -224 -688 0
v -240 -688 0
v -240 -672 0
v -224 -672 0
v -48 -704 0
v -64 -704 0
v -64 -688 0
v -48 -688 0
v -336 -720 0
v -352 -720 0
v -352 -704 0
v -336 -704 0
v -208 -720 0
v -224 -720 0
v -224 -704 0
v -208 -704 0
v -144 -720 0
v -160 -720 0
v -160 -704 0
v -144 -704 0
v -96 -720 0
v -112 -720 0
v -112 -704 0
v -96 -704 0
v -704 -736 0
v -720 -736 0
v -720 -720 0
v -704 -720 0
v -624 -736 0
v -640 -736 0
v -640 -720 0
v -624 -720 0
v -272 -752 0
v -288 -752 0
v -288 -736 0
v -272 -736 0
v 0 -784 0
v -16 -784 0
v -16 -768 0
v 0 -768 0

# Texture cooridinates (Count = 36)
vt 0.3336777 0.6787072
vt 0.3502066 0.6787072
vt 0.3502066 0.7091255
vt 0.3336777 0.7091255
vt 0.5092975 0.6787072
vt 0.5258265 0.6787072
vt 0.5258265 0.7091255
vt 0.5092975 0.7091255
vt 0.5444215 0.6787072
vt 0.5609504 0.6787072
vt 0.5609504 0.7091255
vt 0.5444215 0.7091255
vt 0.3863636 0.6140684
vt 0.4028926 0.6140684
vt 0.4028926 0.6444867
vt 0.3863636 0.6444867
vt 0.4917355 0.6787072
vt 0.5082645 0.6787072
vt 0.5082645 0.7091255
vt 0.4917355 0.7091255
vt 0.4390496 0.6787072
vt 0.4555785 0.6787072
vt 0.4555785 0.7091255
vt 0.4390496 0.7091255
vt 0.3863636 0.6463878
vt 0.4028926 0.6463878
vt 0.4028926 0.6768061
vt 0.3863636 0.6768061
vt 0.5268595 0.6787072
vt 0.5433884 0.6787072
vt 0.5433884 0.7091255
vt 0.5268595 0.7091255
vt 0.2283058 0.6463878
vt 0.2448347 0.6463878
vt 0.2448347 0.6768061
vt 0.2283058 0.6768061

# Normal
vn 0 0 -1

# Mesh description
g GreenSlimeMap_mesh_0004

# Faces
f 1/1/1 2/2/1 3/3/1 4/4/1
f 5/5/1 6/6/1 7/7/1 8/8/1
f 9/9/1 10/10/1 11/11/1 12/12/1
f 13/5/1 14/6/1 15/7/1 16/8/1
f 17/5/1 18/6/1 19/7/1 20/8/1
f 21/9/1 22/10/1 23/11/1 24/12/1
f 25/5/1 26/6/1 27/7/1 28/8/1
f 29/13/1 30/14/1 31/15/1 32/16/1
f 33/5/1 34/6/1 35/7/1 36/8/1
f 37/17/1 38/18/1 39/19/1 40/20/1
f 41/21/1 42/22/1 43/23/1 44/24/1
f 45/25/1 46/26/1 47/27/1 48/28/1
f 49/9/1 50/10/1 51/11/1 52/12/1
f 53/9/1 54/10/1 55/11/1 56/12/1
f 57/21/1 58/22/1 59/23/1 60/24/1
f 61/21/1 62/22/1 63/23/1 64/24/1
f 65/25/1 66/26/1 67/27/1 68/28/1
f 69/17/1 70/18/1 71/19/1 72/20/1
f 73/25/1 74/26/1 75/27/1 76/28/1
f 77/25/1 78/26/1 79/27/1 80/28/1
f 81/9/1 82/10/1 83/11/1 84/12/1
f 85/17/1 86/18/1 87/19/1 88/20/1
f 89/17/1 90/18/1 91/19/1 92/20/1
f 93/17/1 94/18/1 95/19/1 96/20/1
f 97/13/1 98/14/1 99/15/1 100/16/1
f 101/29/1 102/30/1 103/31/1 104/32/1
f 105/21/1 106/22/1 107/23/1 108/24/1
f 109/29/1 110/30/1 111/31/1 112/32/1
f 113/17/1 114/18/1 115/19/1 116/20/1
f 117/5/1 118/6/1 119/7/1 120/8/1
f 121/21/1 122/22/1 123/23/1 124/24/1
f 125/5/1 126/6/1 127/7/1 128/8/1
f 129/29/1 130/30/1 131/31/1 132/32/1
f 133/17/1 134/18/1 135/19/1 136/20/1
f 137/25/1 138/26/1 139/27/1 140/28/1
f 141/21/1 142/22/1 143/23/1 144/24/1
f 145/17/1 146/18/1 147/19/1 148/20/1
f 149/13/1 150/14/1 151/15/1 152/16/1
f 153/29/1 154/30/1 155/31/1 156/32/1
f 157/9/1 158/10/1 159/11/1 160/12/1
f 161/25/1 162/26/1 163/27/1 164/28/1
f 165/17/1 166/18/1 167/19/1 168/20/1
f 169/5/1 170/6/1 171/7/1 172/8/1
f 173/17/1 174/18/1 175/19/1 176/20/1
f 177/29/1 178/30/1 179/31/1 180/32/1
f 181/29/1 182/30/1 183/31/1 184/32/1
f 185/33/1 186/34/1 187/35/1 188/36/1

