# Tiled2Unity generated file. Do not modify by hand.
# Wavefront file for 'WarriorHouse_mesh_0002.obj'

# Vertices (Count = 640)
v -464 -16 0
v -480 -16 0
v -480 0 0
v -464 0 0
v -448 -16 0
v -464 -16 0
v -464 0 0
v -448 0 0
v -432 -16 0
v -448 -16 0
v -448 0 0
v -432 0 0
v -416 -16 0
v -432 -16 0
v -432 0 0
v -416 0 0
v -400 -16 0
v -416 -16 0
v -416 0 0
v -400 0 0
v -384 -16 0
v -400 -16 0
v -400 0 0
v -384 0 0
v -368 -16 0
v -384 -16 0
v -384 0 0
v -368 0 0
v -352 -16 0
v -368 -16 0
v -368 0 0
v -352 0 0
v -336 -16 0
v -352 -16 0
v -352 0 0
v -336 0 0
v -320 -16 0
v -336 -16 0
v -336 0 0
v -320 0 0
v -304 -16 0
v -320 -16 0
v -320 0 0
v -304 0 0
v -288 -16 0
v -304 -16 0
v -304 0 0
v -288 0 0
v -272 -16 0
v -288 -16 0
v -288 0 0
v -272 0 0
v -256 -16 0
v -272 -16 0
v -272 0 0
v -256 0 0
v -240 -16 0
v -256 -16 0
v -256 0 0
v -240 0 0
v -224 -16 0
v -240 -16 0
v -240 0 0
v -224 0 0
v -208 -16 0
v -224 -16 0
v -224 0 0
v -208 0 0
v -192 -16 0
v -208 -16 0
v -208 0 0
v -192 0 0
v -176 -16 0
v -192 -16 0
v -192 0 0
v -176 0 0
v -160 -16 0
v -176 -16 0
v -176 0 0
v -160 0 0
v -144 -16 0
v -160 -16 0
v -160 0 0
v -144 0 0
v -128 -16 0
v -144 -16 0
v -144 0 0
v -128 0 0
v -112 -16 0
v -128 -16 0
v -128 0 0
v -112 0 0
v -96 -16 0
v -112 -16 0
v -112 0 0
v -96 0 0
v -80 -16 0
v -96 -16 0
v -96 0 0
v -80 0 0
v -64 -16 0
v -80 -16 0
v -80 0 0
v -64 0 0
v -48 -16 0
v -64 -16 0
v -64 0 0
v -48 0 0
v -32 -16 0
v -48 -16 0
v -48 0 0
v -32 0 0
v -16 -16 0
v -32 -16 0
v -32 0 0
v -16 0 0
v 0 -16 0
v -16 -16 0
v -16 0 0
v 0 0 0
v -464 -32 0
v -480 -32 0
v -480 -16 0
v -464 -16 0
v -448 -32 0
v -464 -32 0
v -464 -16 0
v -448 -16 0
v -432 -32 0
v -448 -32 0
v -448 -16 0
v -432 -16 0
v -416 -32 0
v -432 -32 0
v -432 -16 0
v -416 -16 0
v -400 -32 0
v -416 -32 0
v -416 -16 0
v -400 -16 0
v -384 -32 0
v -400 -32 0
v -400 -16 0
v -384 -16 0
v -368 -32 0
v -384 -32 0
v -384 -16 0
v -368 -16 0
v -352 -32 0
v -368 -32 0
v -368 -16 0
v -352 -16 0
v -336 -32 0
v -352 -32 0
v -352 -16 0
v -336 -16 0
v -320 -32 0
v -336 -32 0
v -336 -16 0
v -320 -16 0
v -304 -32 0
v -320 -32 0
v -320 -16 0
v -304 -16 0
v -288 -32 0
v -304 -32 0
v -304 -16 0
v -288 -16 0
v -272 -32 0
v -288 -32 0
v -288 -16 0
v -272 -16 0
v -256 -32 0
v -272 -32 0
v -272 -16 0
v -256 -16 0
v -240 -32 0
v -256 -32 0
v -256 -16 0
v -240 -16 0
v -224 -32 0
v -240 -32 0
v -240 -16 0
v -224 -16 0
v -208 -32 0
v -224 -32 0
v -224 -16 0
v -208 -16 0
v -192 -32 0
v -208 -32 0
v -208 -16 0
v -192 -16 0
v -176 -32 0
v -192 -32 0
v -192 -16 0
v -176 -16 0
v -160 -32 0
v -176 -32 0
v -176 -16 0
v -160 -16 0
v -144 -32 0
v -160 -32 0
v -160 -16 0
v -144 -16 0
v -128 -32 0
v -144 -32 0
v -144 -16 0
v -128 -16 0
v -112 -32 0
v -128 -32 0
v -128 -16 0
v -112 -16 0
v -96 -32 0
v -112 -32 0
v -112 -16 0
v -96 -16 0
v -80 -32 0
v -96 -32 0
v -96 -16 0
v -80 -16 0
v -64 -32 0
v -80 -32 0
v -80 -16 0
v -64 -16 0
v -48 -32 0
v -64 -32 0
v -64 -16 0
v -48 -16 0
v -32 -32 0
v -48 -32 0
v -48 -16 0
v -32 -16 0
v -16 -32 0
v -32 -32 0
v -32 -16 0
v -16 -16 0
v 0 -32 0
v -16 -32 0
v -16 -16 0
v 0 -16 0
v -464 -48 0
v -480 -48 0
v -480 -32 0
v -464 -32 0
v -448 -48 0
v -464 -48 0
v -464 -32 0
v -448 -32 0
v -432 -48 0
v -448 -48 0
v -448 -32 0
v -432 -32 0
v -416 -48 0
v -432 -48 0
v -432 -32 0
v -416 -32 0
v -400 -48 0
v -416 -48 0
v -416 -32 0
v -400 -32 0
v -384 -48 0
v -400 -48 0
v -400 -32 0
v -384 -32 0
v -368 -48 0
v -384 -48 0
v -384 -32 0
v -368 -32 0
v -352 -48 0
v -368 -48 0
v -368 -32 0
v -352 -32 0
v -336 -48 0
v -352 -48 0
v -352 -32 0
v -336 -32 0
v -320 -48 0
v -336 -48 0
v -336 -32 0
v -320 -32 0
v -304 -48 0
v -320 -48 0
v -320 -32 0
v -304 -32 0
v -288 -48 0
v -304 -48 0
v -304 -32 0
v -288 -32 0
v -272 -48 0
v -288 -48 0
v -288 -32 0
v -272 -32 0
v -256 -48 0
v -272 -48 0
v -272 -32 0
v -256 -32 0
v -240 -48 0
v -256 -48 0
v -256 -32 0
v -240 -32 0
v -224 -48 0
v -240 -48 0
v -240 -32 0
v -224 -32 0
v -208 -48 0
v -224 -48 0
v -224 -32 0
v -208 -32 0
v -192 -48 0
v -208 -48 0
v -208 -32 0
v -192 -32 0
v -176 -48 0
v -192 -48 0
v -192 -32 0
v -176 -32 0
v -160 -48 0
v -176 -48 0
v -176 -32 0
v -160 -32 0
v -144 -48 0
v -160 -48 0
v -160 -32 0
v -144 -32 0
v -128 -48 0
v -144 -48 0
v -144 -32 0
v -128 -32 0
v -112 -48 0
v -128 -48 0
v -128 -32 0
v -112 -32 0
v -96 -48 0
v -112 -48 0
v -112 -32 0
v -96 -32 0
v -80 -48 0
v -96 -48 0
v -96 -32 0
v -80 -32 0
v -64 -48 0
v -80 -48 0
v -80 -32 0
v -64 -32 0
v -48 -48 0
v -64 -48 0
v -64 -32 0
v -48 -32 0
v -32 -48 0
v -48 -48 0
v -48 -32 0
v -32 -32 0
v -16 -48 0
v -32 -48 0
v -32 -32 0
v -16 -32 0
v 0 -48 0
v -16 -48 0
v -16 -32 0
v 0 -32 0
v -464 -64 0
v -480 -64 0
v -480 -48 0
v -464 -48 0
v 0 -64 0
v -16 -64 0
v -16 -48 0
v 0 -48 0
v -464 -80 0
v -480 -80 0
v -480 -64 0
v -464 -64 0
v 0 -80 0
v -16 -80 0
v -16 -64 0
v 0 -64 0
v -464 -96 0
v -480 -96 0
v -480 -80 0
v -464 -80 0
v -352 -96 0
v -368 -96 0
v -368 -80 0
v -352 -80 0
v 0 -96 0
v -16 -96 0
v -16 -80 0
v 0 -80 0
v -464 -112 0
v -480 -112 0
v -480 -96 0
v -464 -96 0
v 0 -112 0
v -16 -112 0
v -16 -96 0
v 0 -96 0
v -464 -128 0
v -480 -128 0
v -480 -112 0
v -464 -112 0
v 0 -128 0
v -16 -128 0
v -16 -112 0
v 0 -112 0
v -464 -144 0
v -480 -144 0
v -480 -128 0
v -464 -128 0
v -80 -144 0
v -96 -144 0
v -96 -128 0
v -80 -128 0
v -64 -144 0
v -80 -144 0
v -80 -128 0
v -64 -128 0
v 0 -144 0
v -16 -144 0
v -16 -128 0
v 0 -128 0
v -464 -160 0
v -480 -160 0
v -480 -144 0
v -464 -144 0
v -96 -160 0
v -112 -160 0
v -112 -144 0
v -96 -144 0
v -80 -160 0
v -96 -160 0
v -96 -144 0
v -80 -144 0
v -64 -160 0
v -80 -160 0
v -80 -144 0
v -64 -144 0
v -48 -160 0
v -64 -160 0
v -64 -144 0
v -48 -144 0
v 0 -160 0
v -16 -160 0
v -16 -144 0
v 0 -144 0
v -464 -176 0
v -480 -176 0
v -480 -160 0
v -464 -160 0
v -80 -176 0
v -96 -176 0
v -96 -160 0
v -80 -160 0
v -64 -176 0
v -80 -176 0
v -80 -160 0
v -64 -160 0
v 0 -176 0
v -16 -176 0
v -16 -160 0
v 0 -160 0
v -464 -192 0
v -480 -192 0
v -480 -176 0
v -464 -176 0
v 0 -192 0
v -16 -192 0
v -16 -176 0
v 0 -176 0
v -464 -208 0
v -480 -208 0
v -480 -192 0
v -464 -192 0
v 0 -208 0
v -16 -208 0
v -16 -192 0
v 0 -192 0
v -464 -224 0
v -480 -224 0
v -480 -208 0
v -464 -208 0
v 0 -224 0
v -16 -224 0
v -16 -208 0
v 0 -208 0
v -464 -240 0
v -480 -240 0
v -480 -224 0
v -464 -224 0
v 0 -240 0
v -16 -240 0
v -16 -224 0
v 0 -224 0
v -464 -256 0
v -480 -256 0
v -480 -240 0
v -464 -240 0
v 0 -256 0
v -16 -256 0
v -16 -240 0
v 0 -240 0
v -464 -272 0
v -480 -272 0
v -480 -256 0
v -464 -256 0
v 0 -272 0
v -16 -272 0
v -16 -256 0
v 0 -256 0
v -464 -288 0
v -480 -288 0
v -480 -272 0
v -464 -272 0
v 0 -288 0
v -16 -288 0
v -16 -272 0
v 0 -272 0
v -464 -304 0
v -480 -304 0
v -480 -288 0
v -464 -288 0
v 0 -304 0
v -16 -304 0
v -16 -288 0
v 0 -288 0
v -464 -320 0
v -480 -320 0
v -480 -304 0
v -464 -304 0
v -448 -320 0
v -464 -320 0
v -464 -304 0
v -448 -304 0
v -432 -320 0
v -448 -320 0
v -448 -304 0
v -432 -304 0
v -416 -320 0
v -432 -320 0
v -432 -304 0
v -416 -304 0
v -400 -320 0
v -416 -320 0
v -416 -304 0
v -400 -304 0
v -368 -320 0
v -384 -320 0
v -384 -304 0
v -368 -304 0
v -352 -320 0
v -368 -320 0
v -368 -304 0
v -352 -304 0
v -336 -320 0
v -352 -320 0
v -352 -304 0
v -336 -304 0
v -320 -320 0
v -336 -320 0
v -336 -304 0
v -320 -304 0
v -304 -320 0
v -320 -320 0
v -320 -304 0
v -304 -304 0
v -288 -320 0
v -304 -320 0
v -304 -304 0
v -288 -304 0
v -272 -320 0
v -288 -320 0
v -288 -304 0
v -272 -304 0
v -256 -320 0
v -272 -320 0
v -272 -304 0
v -256 -304 0
v -240 -320 0
v -256 -320 0
v -256 -304 0
v -240 -304 0
v -224 -320 0
v -240 -320 0
v -240 -304 0
v -224 -304 0
v -208 -320 0
v -224 -320 0
v -224 -304 0
v -208 -304 0
v -192 -320 0
v -208 -320 0
v -208 -304 0
v -192 -304 0
v -176 -320 0
v -192 -320 0
v -192 -304 0
v -176 -304 0
v -160 -320 0
v -176 -320 0
v -176 -304 0
v -160 -304 0
v -144 -320 0
v -160 -320 0
v -160 -304 0
v -144 -304 0
v -128 -320 0
v -144 -320 0
v -144 -304 0
v -128 -304 0
v -112 -320 0
v -128 -320 0
v -128 -304 0
v -112 -304 0
v -96 -320 0
v -112 -320 0
v -112 -304 0
v -96 -304 0
v -80 -320 0
v -96 -320 0
v -96 -304 0
v -80 -304 0
v -64 -320 0
v -80 -320 0
v -80 -304 0
v -64 -304 0
v -48 -320 0
v -64 -320 0
v -64 -304 0
v -48 -304 0
v -32 -320 0
v -48 -320 0
v -48 -304 0
v -32 -304 0
v -16 -320 0
v -32 -320 0
v -32 -304 0
v -16 -304 0
v 0 -320 0
v -16 -320 0
v -16 -304 0
v 0 -304 0

# Texture cooridinates (Count = 64)
vt 0.7024794 0.2908745
vt 0.7190083 0.2908745
vt 0.7190083 0.3212928
vt 0.7024794 0.3212928
vt 0.6849173 0.2908745
vt 0.7014463 0.2908745
vt 0.7014463 0.3212928
vt 0.6849173 0.3212928
vt 0.6673554 0.2908745
vt 0.6838843 0.2908745
vt 0.6838843 0.3212928
vt 0.6673554 0.3212928
vt 0.7024794 0.2585551
vt 0.7190083 0.2585551
vt 0.7190083 0.2889734
vt 0.7024794 0.2889734
vt 0.6849173 0.2585551
vt 0.7014463 0.2585551
vt 0.7014463 0.2889734
vt 0.6849173 0.2889734
vt 0.6673554 0.2585551
vt 0.6838843 0.2585551
vt 0.6838843 0.2889734
vt 0.6673554 0.2889734
vt 0.6849173 0.2262357
vt 0.7014463 0.2262357
vt 0.7014463 0.256654
vt 0.6849173 0.256654
vt 0.4214876 0.904943
vt 0.4380165 0.904943
vt 0.4380165 0.9353612
vt 0.4214876 0.9353612
vt 0.3336777 0.8403042
vt 0.3502066 0.8403042
vt 0.3502066 0.8707224
vt 0.3336777 0.8707224
vt 0.3863636 0.8403042
vt 0.4028926 0.8403042
vt 0.4028926 0.8707224
vt 0.3863636 0.8707224
vt 0.3512397 0.7756654
vt 0.3677686 0.7756654
vt 0.3677686 0.8060837
vt 0.3512397 0.8060837
vt 0.3336777 0.7756654
vt 0.3502066 0.7756654
vt 0.3502066 0.8060837
vt 0.3336777 0.8060837
vt 0.3688017 0.8403042
vt 0.3853306 0.8403042
vt 0.3853306 0.8707224
vt 0.3688017 0.8707224
vt 0.3512397 0.8403042
vt 0.3677686 0.8403042
vt 0.3677686 0.8707224
vt 0.3512397 0.8707224
vt 0.7024794 0.2262357
vt 0.7190083 0.2262357
vt 0.7190083 0.256654
vt 0.7024794 0.256654
vt 0.6673554 0.2262357
vt 0.6838843 0.2262357
vt 0.6838843 0.256654
vt 0.6673554 0.256654

# Normal
vn 0 0 -1

# Mesh description
g WarriorHouse_mesh_0002

# Faces
f 1/1/1 2/2/1 3/3/1 4/4/1
f 5/5/1 6/6/1 7/7/1 8/8/1
f 9/5/1 10/6/1 11/7/1 12/8/1
f 13/5/1 14/6/1 15/7/1 16/8/1
f 17/5/1 18/6/1 19/7/1 20/8/1
f 21/5/1 22/6/1 23/7/1 24/8/1
f 25/5/1 26/6/1 27/7/1 28/8/1
f 29/5/1 30/6/1 31/7/1 32/8/1
f 33/5/1 34/6/1 35/7/1 36/8/1
f 37/5/1 38/6/1 39/7/1 40/8/1
f 41/5/1 42/6/1 43/7/1 44/8/1
f 45/5/1 46/6/1 47/7/1 48/8/1
f 49/5/1 50/6/1 51/7/1 52/8/1
f 53/5/1 54/6/1 55/7/1 56/8/1
f 57/5/1 58/6/1 59/7/1 60/8/1
f 61/5/1 62/6/1 63/7/1 64/8/1
f 65/5/1 66/6/1 67/7/1 68/8/1
f 69/5/1 70/6/1 71/7/1 72/8/1
f 73/5/1 74/6/1 75/7/1 76/8/1
f 77/5/1 78/6/1 79/7/1 80/8/1
f 81/5/1 82/6/1 83/7/1 84/8/1
f 85/5/1 86/6/1 87/7/1 88/8/1
f 89/5/1 90/6/1 91/7/1 92/8/1
f 93/5/1 94/6/1 95/7/1 96/8/1
f 97/5/1 98/6/1 99/7/1 100/8/1
f 101/5/1 102/6/1 103/7/1 104/8/1
f 105/5/1 106/6/1 107/7/1 108/8/1
f 109/5/1 110/6/1 111/7/1 112/8/1
f 113/5/1 114/6/1 115/7/1 116/8/1
f 117/9/1 118/10/1 119/11/1 120/12/1
f 121/13/1 122/14/1 123/15/1 124/16/1
f 125/17/1 126/18/1 127/19/1 128/20/1
f 129/17/1 130/18/1 131/19/1 132/20/1
f 133/17/1 134/18/1 135/19/1 136/20/1
f 137/17/1 138/18/1 139/19/1 140/20/1
f 141/17/1 142/18/1 143/19/1 144/20/1
f 145/17/1 146/18/1 147/19/1 148/20/1
f 149/17/1 150/18/1 151/19/1 152/20/1
f 153/17/1 154/18/1 155/19/1 156/20/1
f 157/17/1 158/18/1 159/19/1 160/20/1
f 161/17/1 162/18/1 163/19/1 164/20/1
f 165/17/1 166/18/1 167/19/1 168/20/1
f 169/17/1 170/18/1 171/19/1 172/20/1
f 173/17/1 174/18/1 175/19/1 176/20/1
f 177/17/1 178/18/1 179/19/1 180/20/1
f 181/17/1 182/18/1 183/19/1 184/20/1
f 185/17/1 186/18/1 187/19/1 188/20/1
f 189/17/1 190/18/1 191/19/1 192/20/1
f 193/17/1 194/18/1 195/19/1 196/20/1
f 197/17/1 198/18/1 199/19/1 200/20/1
f 201/17/1 202/18/1 203/19/1 204/20/1
f 205/17/1 206/18/1 207/19/1 208/20/1
f 209/17/1 210/18/1 211/19/1 212/20/1
f 213/17/1 214/18/1 215/19/1 216/20/1
f 217/17/1 218/18/1 219/19/1 220/20/1
f 221/17/1 222/18/1 223/19/1 224/20/1
f 225/17/1 226/18/1 227/19/1 228/20/1
f 229/17/1 230/18/1 231/19/1 232/20/1
f 233/17/1 234/18/1 235/19/1 236/20/1
f 237/21/1 238/22/1 239/23/1 240/24/1
f 241/13/1 242/14/1 243/15/1 244/16/1
f 245/25/1 246/26/1 247/27/1 248/28/1
f 249/25/1 250/26/1 251/27/1 252/28/1
f 253/25/1 254/26/1 255/27/1 256/28/1
f 257/25/1 258/26/1 259/27/1 260/28/1
f 261/25/1 262/26/1 263/27/1 264/28/1
f 265/25/1 266/26/1 267/27/1 268/28/1
f 269/25/1 270/26/1 271/27/1 272/28/1
f 273/25/1 274/26/1 275/27/1 276/28/1
f 277/25/1 278/26/1 279/27/1 280/28/1
f 281/25/1 282/26/1 283/27/1 284/28/1
f 285/25/1 286/26/1 287/27/1 288/28/1
f 289/25/1 290/26/1 291/27/1 292/28/1
f 293/25/1 294/26/1 295/27/1 296/28/1
f 297/25/1 298/26/1 299/27/1 300/28/1
f 301/25/1 302/26/1 303/27/1 304/28/1
f 305/25/1 306/26/1 307/27/1 308/28/1
f 309/25/1 310/26/1 311/27/1 312/28/1
f 313/25/1 314/26/1 315/27/1 316/28/1
f 317/25/1 318/26/1 319/27/1 320/28/1
f 321/25/1 322/26/1 323/27/1 324/28/1
f 325/25/1 326/26/1 327/27/1 328/28/1
f 329/25/1 330/26/1 331/27/1 332/28/1
f 333/25/1 334/26/1 335/27/1 336/28/1
f 337/25/1 338/26/1 339/27/1 340/28/1
f 341/25/1 342/26/1 343/27/1 344/28/1
f 345/25/1 346/26/1 347/27/1 348/28/1
f 349/25/1 350/26/1 351/27/1 352/28/1
f 353/25/1 354/26/1 355/27/1 356/28/1
f 357/21/1 358/22/1 359/23/1 360/24/1
f 361/13/1 362/14/1 363/15/1 364/16/1
f 365/21/1 366/22/1 367/23/1 368/24/1
f 369/13/1 370/14/1 371/15/1 372/16/1
f 373/21/1 374/22/1 375/23/1 376/24/1
f 377/13/1 378/14/1 379/15/1 380/16/1
f 381/29/1 382/30/1 383/31/1 384/32/1
f 385/21/1 386/22/1 387/23/1 388/24/1
f 389/13/1 390/14/1 391/15/1 392/16/1
f 393/21/1 394/22/1 395/23/1 396/24/1
f 397/13/1 398/14/1 399/15/1 400/16/1
f 401/21/1 402/22/1 403/23/1 404/24/1
f 405/13/1 406/14/1 407/15/1 408/16/1
f 409/33/1 410/34/1 411/35/1 412/36/1
f 413/33/1 414/34/1 415/35/1 416/36/1
f 417/21/1 418/22/1 419/23/1 420/24/1
f 421/13/1 422/14/1 423/15/1 424/16/1
f 425/37/1 426/38/1 427/39/1 428/40/1
f 429/41/1 430/42/1 431/43/1 432/44/1
f 433/45/1 434/46/1 435/47/1 436/48/1
f 437/49/1 438/50/1 439/51/1 440/52/1
f 441/21/1 442/22/1 443/23/1 444/24/1
f 445/13/1 446/14/1 447/15/1 448/16/1
f 449/53/1 450/54/1 451/55/1 452/56/1
f 453/53/1 454/54/1 455/55/1 456/56/1
f 457/21/1 458/22/1 459/23/1 460/24/1
f 461/13/1 462/14/1 463/15/1 464/16/1
f 465/21/1 466/22/1 467/23/1 468/24/1
f 469/13/1 470/14/1 471/15/1 472/16/1
f 473/21/1 474/22/1 475/23/1 476/24/1
f 477/13/1 478/14/1 479/15/1 480/16/1
f 481/21/1 482/22/1 483/23/1 484/24/1
f 485/13/1 486/14/1 487/15/1 488/16/1
f 489/21/1 490/22/1 491/23/1 492/24/1
f 493/13/1 494/14/1 495/15/1 496/16/1
f 497/21/1 498/22/1 499/23/1 500/24/1
f 501/13/1 502/14/1 503/15/1 504/16/1
f 505/21/1 506/22/1 507/23/1 508/24/1
f 509/13/1 510/14/1 511/15/1 512/16/1
f 513/21/1 514/22/1 515/23/1 516/24/1
f 517/13/1 518/14/1 519/15/1 520/16/1
f 521/21/1 522/22/1 523/23/1 524/24/1
f 525/57/1 526/58/1 527/59/1 528/60/1
f 529/25/1 530/26/1 531/27/1 532/28/1
f 533/25/1 534/26/1 535/27/1 536/28/1
f 537/25/1 538/26/1 539/27/1 540/28/1
f 541/25/1 542/26/1 543/27/1 544/28/1
f 545/25/1 546/26/1 547/27/1 548/28/1
f 549/25/1 550/26/1 551/27/1 552/28/1
f 553/25/1 554/26/1 555/27/1 556/28/1
f 557/25/1 558/26/1 559/27/1 560/28/1
f 561/25/1 562/26/1 563/27/1 564/28/1
f 565/25/1 566/26/1 567/27/1 568/28/1
f 569/25/1 570/26/1 571/27/1 572/28/1
f 573/25/1 574/26/1 575/27/1 576/28/1
f 577/25/1 578/26/1 579/27/1 580/28/1
f 581/25/1 582/26/1 583/27/1 584/28/1
f 585/25/1 586/26/1 587/27/1 588/28/1
f 589/25/1 590/26/1 591/27/1 592/28/1
f 593/25/1 594/26/1 595/27/1 596/28/1
f 597/25/1 598/26/1 599/27/1 600/28/1
f 601/25/1 602/26/1 603/27/1 604/28/1
f 605/25/1 606/26/1 607/27/1 608/28/1
f 609/25/1 610/26/1 611/27/1 612/28/1
f 613/25/1 614/26/1 615/27/1 616/28/1
f 617/25/1 618/26/1 619/27/1 620/28/1
f 621/25/1 622/26/1 623/27/1 624/28/1
f 625/25/1 626/26/1 627/27/1 628/28/1
f 629/25/1 630/26/1 631/27/1 632/28/1
f 633/25/1 634/26/1 635/27/1 636/28/1
f 637/61/1 638/62/1 639/63/1 640/64/1

