# Tiled2Unity generated file. Do not modify by hand.
# Wavefront file for 'map_mesh_0003.obj'

# Vertices (Count = 12)
v -736 -144 0
v -752 -144 0
v -752 -128 0
v -736 -128 0
v -720 -144 0
v -736 -144 0
v -736 -128 0
v -720 -128 0
v -704 -144 0
v -720 -144 0
v -720 -128 0
v -704 -128 0

# Texture cooridinates (Count = 12)
vt 0.1931818 0.904943
vt 0.2097107 0.904943
vt 0.2097107 0.9353612
vt 0.1931818 0.9353612
vt 0.1931818 0.9695817
vt 0.2097107 0.9695817
vt 0.2097107 1
vt 0.1931818 1
vt 0.1931818 0.9372624
vt 0.2097107 0.9372624
vt 0.2097107 0.9676806
vt 0.1931818 0.9676806

# Normal
vn 0 0 -1

# Mesh description
g map_mesh_0003

# Faces
f 1/1/1 2/2/1 3/3/1 4/4/1
f 5/5/1 6/6/1 7/7/1 8/8/1
f 9/9/1 10/10/1 11/11/1 12/12/1

