# Tiled2Unity generated file. Do not modify by hand.
# Wavefront file for 'map_mesh_0004.obj'

# Vertices (Count = 388)
v 0 -48 0
v -16 -48 0
v -16 -32 0
v 0 -32 0
v -784 -64 0
v -800 -64 0
v -800 -48 0
v -784 -48 0
v 0 -64 0
v -16 -64 0
v -16 -48 0
v 0 -48 0
v -784 -80 0
v -800 -80 0
v -800 -64 0
v -784 -64 0
v -784 -96 0
v -800 -96 0
v -800 -80 0
v -784 -80 0
v -784 -112 0
v -800 -112 0
v -800 -96 0
v -784 -96 0
v -784 -128 0
v -800 -128 0
v -800 -112 0
v -784 -112 0
v -784 -144 0
v -800 -144 0
v -800 -128 0
v -784 -128 0
v -784 -160 0
v -800 -160 0
v -800 -144 0
v -784 -144 0
v -784 -176 0
v -800 -176 0
v -800 -160 0
v -784 -160 0
v -784 -192 0
v -800 -192 0
v -800 -176 0
v -784 -176 0
v -784 -208 0
v -800 -208 0
v -800 -192 0
v -784 -192 0
v -784 -224 0
v -800 -224 0
v -800 -208 0
v -784 -208 0
v 0 -224 0
v -16 -224 0
v -16 -208 0
v 0 -208 0
v -784 -240 0
v -800 -240 0
v -800 -224 0
v -784 -224 0
v 0 -240 0
v -16 -240 0
v -16 -224 0
v 0 -224 0
v -784 -256 0
v -800 -256 0
v -800 -240 0
v -784 -240 0
v 0 -256 0
v -16 -256 0
v -16 -240 0
v 0 -240 0
v -784 -272 0
v -800 -272 0
v -800 -256 0
v -784 -256 0
v 0 -272 0
v -16 -272 0
v -16 -256 0
v 0 -256 0
v -784 -288 0
v -800 -288 0
v -800 -272 0
v -784 -272 0
v 0 -288 0
v -16 -288 0
v -16 -272 0
v 0 -272 0
v -784 -304 0
v -800 -304 0
v -800 -288 0
v -784 -288 0
v 0 -304 0
v -16 -304 0
v -16 -288 0
v 0 -288 0
v -784 -320 0
v -800 -320 0
v -800 -304 0
v -784 -304 0
v 0 -320 0
v -16 -320 0
v -16 -304 0
v 0 -304 0
v -784 -336 0
v -800 -336 0
v -800 -320 0
v -784 -320 0
v 0 -336 0
v -16 -336 0
v -16 -320 0
v 0 -320 0
v -784 -352 0
v -800 -352 0
v -800 -336 0
v -784 -336 0
v 0 -352 0
v -16 -352 0
v -16 -336 0
v 0 -336 0
v -784 -368 0
v -800 -368 0
v -800 -352 0
v -784 -352 0
v 0 -368 0
v -16 -368 0
v -16 -352 0
v 0 -352 0
v -784 -384 0
v -800 -384 0
v -800 -368 0
v -784 -368 0
v 0 -384 0
v -16 -384 0
v -16 -368 0
v 0 -368 0
v -784 -400 0
v -800 -400 0
v -800 -384 0
v -784 -384 0
v 0 -400 0
v -16 -400 0
v -16 -384 0
v 0 -384 0
v -784 -416 0
v -800 -416 0
v -800 -400 0
v -784 -400 0
v 0 -416 0
v -16 -416 0
v -16 -400 0
v 0 -400 0
v -784 -432 0
v -800 -432 0
v -800 -416 0
v -784 -416 0
v 0 -432 0
v -16 -432 0
v -16 -416 0
v 0 -416 0
v -784 -448 0
v -800 -448 0
v -800 -432 0
v -784 -432 0
v 0 -448 0
v -16 -448 0
v -16 -432 0
v 0 -432 0
v -784 -464 0
v -800 -464 0
v -800 -448 0
v -784 -448 0
v 0 -464 0
v -16 -464 0
v -16 -448 0
v 0 -448 0
v -784 -480 0
v -800 -480 0
v -800 -464 0
v -784 -464 0
v 0 -480 0
v -16 -480 0
v -16 -464 0
v 0 -464 0
v -784 -496 0
v -800 -496 0
v -800 -480 0
v -784 -480 0
v 0 -496 0
v -16 -496 0
v -16 -480 0
v 0 -480 0
v -784 -512 0
v -800 -512 0
v -800 -496 0
v -784 -496 0
v 0 -512 0
v -16 -512 0
v -16 -496 0
v 0 -496 0
v -784 -528 0
v -800 -528 0
v -800 -512 0
v -784 -512 0
v 0 -528 0
v -16 -528 0
v -16 -512 0
v 0 -512 0
v -784 -544 0
v -800 -544 0
v -800 -528 0
v -784 -528 0
v 0 -544 0
v -16 -544 0
v -16 -528 0
v 0 -528 0
v -784 -560 0
v -800 -560 0
v -800 -544 0
v -784 -544 0
v 0 -560 0
v -16 -560 0
v -16 -544 0
v 0 -544 0
v -784 -576 0
v -800 -576 0
v -800 -560 0
v -784 -560 0
v 0 -576 0
v -16 -576 0
v -16 -560 0
v 0 -560 0
v -784 -592 0
v -800 -592 0
v -800 -576 0
v -784 -576 0
v 0 -592 0
v -16 -592 0
v -16 -576 0
v 0 -576 0
v -784 -608 0
v -800 -608 0
v -800 -592 0
v -784 -592 0
v 0 -608 0
v -16 -608 0
v -16 -592 0
v 0 -592 0
v -784 -624 0
v -800 -624 0
v -800 -608 0
v -784 -608 0
v 0 -624 0
v -16 -624 0
v -16 -608 0
v 0 -608 0
v -784 -640 0
v -800 -640 0
v -800 -624 0
v -784 -624 0
v 0 -640 0
v -16 -640 0
v -16 -624 0
v 0 -624 0
v -784 -656 0
v -800 -656 0
v -800 -640 0
v -784 -640 0
v 0 -656 0
v -16 -656 0
v -16 -640 0
v 0 -640 0
v -784 -672 0
v -800 -672 0
v -800 -656 0
v -784 -656 0
v 0 -672 0
v -16 -672 0
v -16 -656 0
v 0 -656 0
v -784 -688 0
v -800 -688 0
v -800 -672 0
v -784 -672 0
v 0 -688 0
v -16 -688 0
v -16 -672 0
v 0 -672 0
v -784 -704 0
v -800 -704 0
v -800 -688 0
v -784 -688 0
v 0 -704 0
v -16 -704 0
v -16 -688 0
v 0 -688 0
v -784 -720 0
v -800 -720 0
v -800 -704 0
v -784 -704 0
v 0 -720 0
v -16 -720 0
v -16 -704 0
v 0 -704 0
v -784 -736 0
v -800 -736 0
v -800 -720 0
v -784 -720 0
v -768 -736 0
v -784 -736 0
v -784 -720 0
v -768 -720 0
v -736 -736 0
v -752 -736 0
v -752 -720 0
v -736 -720 0
v 0 -736 0
v -16 -736 0
v -16 -720 0
v 0 -720 0
v -784 -752 0
v -800 -752 0
v -800 -736 0
v -784 -736 0
v -768 -752 0
v -784 -752 0
v -784 -736 0
v -768 -736 0
v -752 -752 0
v -768 -752 0
v -768 -736 0
v -752 -736 0
v -736 -752 0
v -752 -752 0
v -752 -736 0
v -736 -736 0
v 0 -752 0
v -16 -752 0
v -16 -736 0
v 0 -736 0
v -784 -768 0
v -800 -768 0
v -800 -752 0
v -784 -752 0
v -768 -768 0
v -784 -768 0
v -784 -752 0
v -768 -752 0
v -752 -768 0
v -768 -768 0
v -768 -752 0
v -752 -752 0
v -736 -768 0
v -752 -768 0
v -752 -752 0
v -736 -752 0
v 0 -768 0
v -16 -768 0
v -16 -752 0
v 0 -752 0
v -784 -784 0
v -800 -784 0
v -800 -768 0
v -784 -768 0
v -768 -784 0
v -784 -784 0
v -784 -768 0
v -768 -768 0
v -752 -784 0
v -768 -784 0
v -768 -768 0
v -752 -768 0
v -736 -784 0
v -752 -784 0
v -752 -768 0
v -736 -768 0
v 0 -784 0
v -16 -784 0
v -16 -768 0
v 0 -768 0
v -784 -800 0
v -800 -800 0
v -800 -784 0
v -784 -784 0
v 0 -800 0
v -16 -800 0
v -16 -784 0
v 0 -784 0

# Texture cooridinates (Count = 12)
vt 0.2283058 0.6787072
vt 0.2448347 0.6787072
vt 0.2448347 0.7091255
vt 0.2283058 0.7091255
vt 0.2283058 0.6140684
vt 0.2448347 0.6140684
vt 0.2448347 0.6444867
vt 0.2283058 0.6444867
vt 0.2283058 0.6463878
vt 0.2448347 0.6463878
vt 0.2448347 0.6768061
vt 0.2283058 0.6768061

# Normal
vn 0 0 -1

# Mesh description
g map_mesh_0004

# Faces
f 1/1/1 2/2/1 3/3/1 4/4/1
f 5/5/1 6/6/1 7/7/1 8/8/1
f 9/1/1 10/2/1 11/3/1 12/4/1
f 13/5/1 14/6/1 15/7/1 16/8/1
f 17/5/1 18/6/1 19/7/1 20/8/1
f 21/5/1 22/6/1 23/7/1 24/8/1
f 25/5/1 26/6/1 27/7/1 28/8/1
f 29/5/1 30/6/1 31/7/1 32/8/1
f 33/5/1 34/6/1 35/7/1 36/8/1
f 37/5/1 38/6/1 39/7/1 40/8/1
f 41/5/1 42/6/1 43/7/1 44/8/1
f 45/5/1 46/6/1 47/7/1 48/8/1
f 49/5/1 50/6/1 51/7/1 52/8/1
f 53/5/1 54/6/1 55/7/1 56/8/1
f 57/5/1 58/6/1 59/7/1 60/8/1
f 61/5/1 62/6/1 63/7/1 64/8/1
f 65/5/1 66/6/1 67/7/1 68/8/1
f 69/5/1 70/6/1 71/7/1 72/8/1
f 73/5/1 74/6/1 75/7/1 76/8/1
f 77/5/1 78/6/1 79/7/1 80/8/1
f 81/5/1 82/6/1 83/7/1 84/8/1
f 85/5/1 86/6/1 87/7/1 88/8/1
f 89/5/1 90/6/1 91/7/1 92/8/1
f 93/5/1 94/6/1 95/7/1 96/8/1
f 97/5/1 98/6/1 99/7/1 100/8/1
f 101/5/1 102/6/1 103/7/1 104/8/1
f 105/5/1 106/6/1 107/7/1 108/8/1
f 109/5/1 110/6/1 111/7/1 112/8/1
f 113/5/1 114/6/1 115/7/1 116/8/1
f 117/5/1 118/6/1 119/7/1 120/8/1
f 121/5/1 122/6/1 123/7/1 124/8/1
f 125/5/1 126/6/1 127/7/1 128/8/1
f 129/5/1 130/6/1 131/7/1 132/8/1
f 133/5/1 134/6/1 135/7/1 136/8/1
f 137/5/1 138/6/1 139/7/1 140/8/1
f 141/5/1 142/6/1 143/7/1 144/8/1
f 145/5/1 146/6/1 147/7/1 148/8/1
f 149/5/1 150/6/1 151/7/1 152/8/1
f 153/5/1 154/6/1 155/7/1 156/8/1
f 157/5/1 158/6/1 159/7/1 160/8/1
f 161/5/1 162/6/1 163/7/1 164/8/1
f 165/5/1 166/6/1 167/7/1 168/8/1
f 169/5/1 170/6/1 171/7/1 172/8/1
f 173/5/1 174/6/1 175/7/1 176/8/1
f 177/5/1 178/6/1 179/7/1 180/8/1
f 181/5/1 182/6/1 183/7/1 184/8/1
f 185/5/1 186/6/1 187/7/1 188/8/1
f 189/5/1 190/6/1 191/7/1 192/8/1
f 193/5/1 194/6/1 195/7/1 196/8/1
f 197/5/1 198/6/1 199/7/1 200/8/1
f 201/5/1 202/6/1 203/7/1 204/8/1
f 205/5/1 206/6/1 207/7/1 208/8/1
f 209/5/1 210/6/1 211/7/1 212/8/1
f 213/5/1 214/6/1 215/7/1 216/8/1
f 217/5/1 218/6/1 219/7/1 220/8/1
f 221/5/1 222/6/1 223/7/1 224/8/1
f 225/5/1 226/6/1 227/7/1 228/8/1
f 229/5/1 230/6/1 231/7/1 232/8/1
f 233/5/1 234/6/1 235/7/1 236/8/1
f 237/5/1 238/6/1 239/7/1 240/8/1
f 241/5/1 242/6/1 243/7/1 244/8/1
f 245/5/1 246/6/1 247/7/1 248/8/1
f 249/5/1 250/6/1 251/7/1 252/8/1
f 253/5/1 254/6/1 255/7/1 256/8/1
f 257/5/1 258/6/1 259/7/1 260/8/1
f 261/5/1 262/6/1 263/7/1 264/8/1
f 265/5/1 266/6/1 267/7/1 268/8/1
f 269/5/1 270/6/1 271/7/1 272/8/1
f 273/5/1 274/6/1 275/7/1 276/8/1
f 277/5/1 278/6/1 279/7/1 280/8/1
f 281/5/1 282/6/1 283/7/1 284/8/1
f 285/5/1 286/6/1 287/7/1 288/8/1
f 289/5/1 290/6/1 291/7/1 292/8/1
f 293/5/1 294/6/1 295/7/1 296/8/1
f 297/5/1 298/6/1 299/7/1 300/8/1
f 301/5/1 302/6/1 303/7/1 304/8/1
f 305/5/1 306/6/1 307/7/1 308/8/1
f 309/9/1 310/10/1 311/11/1 312/12/1
f 313/9/1 314/10/1 315/11/1 316/12/1
f 317/5/1 318/6/1 319/7/1 320/8/1
f 321/5/1 322/6/1 323/7/1 324/8/1
f 325/5/1 326/6/1 327/7/1 328/8/1
f 329/5/1 330/6/1 331/7/1 332/8/1
f 333/5/1 334/6/1 335/7/1 336/8/1
f 337/5/1 338/6/1 339/7/1 340/8/1
f 341/5/1 342/6/1 343/7/1 344/8/1
f 345/5/1 346/6/1 347/7/1 348/8/1
f 349/5/1 350/6/1 351/7/1 352/8/1
f 353/5/1 354/6/1 355/7/1 356/8/1
f 357/5/1 358/6/1 359/7/1 360/8/1
f 361/5/1 362/6/1 363/7/1 364/8/1
f 365/5/1 366/6/1 367/7/1 368/8/1
f 369/5/1 370/6/1 371/7/1 372/8/1
f 373/5/1 374/6/1 375/7/1 376/8/1
f 377/5/1 378/6/1 379/7/1 380/8/1
f 381/5/1 382/6/1 383/7/1 384/8/1
f 385/5/1 386/6/1 387/7/1 388/8/1

